<svg xmlns="http://www.w3.org/2000/svg" width="1080" height="520"><rect width="100%" height="100%" fill="white"/><style>text{font-family:Arial;fill:#111}.w{stroke:#111;stroke-width:4;fill:none}</style><text x="35" y="45" font-size="28" font-weight="bold">Lesson 33 — Diode-capacitor voltage doubler</text><line class="w" x1="80" y1="240" x2="250" y2="240"/><polygon points="250,210 310,240 250,270" fill="none" stroke="#111" stroke-width="4"/><line class="w" x1="315" y1="210" x2="315" y2="270"/><line class="w" x1="315" y1="240" x2="520" y2="240"/><line class="w" x1="520" y1="240" x2="520" y2="350"/><line class="w" x1="475" y1="350" x2="565" y2="350"/><line class="w" x1="475" y1="375" x2="565" y2="375"/><text x="580" y="370" font-size="22">C1</text><line class="w" x1="520" y1="240" x2="720" y2="240"/><polygon points="720,210 780,240 720,270" fill="none" stroke="#111" stroke-width="4"/><line class="w" x1="785" y1="210" x2="785" y2="270"/><line class="w" x1="785" y1="240" x2="960" y2="240"/><text x="350" y="120" font-size="22">Alternate phases stack capacitor voltage</text><text x="250" y="465" font-size="22">No-load multiplication is easy; loaded regulation is the real design</text></svg>