<svg xmlns="http://www.w3.org/2000/svg" width="1160" height="600"><rect width="100%" height="100%" fill="white"/><style>text{font-family:Arial;fill:#111}.w{stroke:#111;stroke-width:4;fill:none}.a{stroke:#111;stroke-width:3;fill:none;marker-end:url(#m)}</style><defs><marker id="m" markerWidth="10" markerHeight="10" refX="8" refY="3" orient="auto"><path d="M0,0 L0,6 L9,3 z" fill="#111"/></marker></defs><text x="35" y="45" font-size="28" font-weight="bold">Lesson 40 — Protected rectified supply and sensing capstone</text><rect x="45" y="150" width="180" height="90" class="w"/><text x="80" y="202" font-size="22">AC / DC input</text><line class="a" x1="225" y1="195" x2="335" y2="195"/><rect x="335" y="130" width="220" height="130" class="w"/><text x="380" y="175" font-size="22">Bridge + inrush</text><text x="390" y="210" font-size="18">TVS + fuse</text><line class="a" x1="555" y1="195" x2="665" y2="195"/><rect x="665" y="130" width="200" height="130" class="w"/><text x="700" y="175" font-size="22">Reservoir bus</text><text x="710" y="210" font-size="18">load + ripple</text><line class="a" x1="865" y1="195" x2="975" y2="195"/><rect x="975" y="150" width="145" height="90" class="w"/><text x="1008" y="202" font-size="22">Controller</text><line class="a" x1="1045" y1="240" x2="1045" y2="355"/><rect x="900" y="355" width="220" height="100" class="w"/><text x="945" y="398" font-size="22">Relay clamp</text><text x="940" y="430" font-size="18">release + energy</text><line class="a" x1="900" y1="405" x2="735" y2="405"/><rect x="515" y="355" width="220" height="100" class="w"/><text x="550" y="398" font-size="22">Photodiode TIA</text><text x="555" y="430" font-size="18">gain + bandwidth</text><text x="215" y="545" font-size="22">Rectify → protect → store → switch → sense → verify</text></svg>