<svg xmlns="http://www.w3.org/2000/svg" width="1080" height="520"><rect width="100%" height="100%" fill="white"/><style>text{font-family:Arial;fill:#111}.w{stroke:#111;stroke-width:4;fill:none}</style><text x="35" y="45" font-size="28" font-weight="bold">Lesson 36 — Photodiode equivalent model</text><rect x="80" y="170" width="170" height="90" class="w"/><text x="110" y="220" font-size="22">Light-controlled</text><text x="125" y="250" font-size="22">current source</text><line class="w" x1="250" y1="215" x2="850" y2="215"/><line class="w" x1="420" y1="215" x2="420" y2="360"/><line class="w" x1="385" y1="300" x2="455" y2="300"/><line class="w" x1="385" y1="325" x2="455" y2="325"/><text x="360" y="390" font-size="20">Cj</text><line class="w" x1="610" y1="215" x2="610" y2="360"/><polyline class="w" points="610,245 590,270 630,300 590,330 610,355"/><text x="645" y="310" font-size="20">Rshunt</text><line class="w" x1="780" y1="215" x2="780" y2="360"/><polygon points="750,275 810,275 780,320" fill="none" stroke="#111" stroke-width="4"/><line class="w" x1="740" y1="330" x2="820" y2="330"/><text x="830" y="305" font-size="20">junction</text><text x="210" y="460" font-size="22">Reverse bias lowers capacitance but increases dark current and noise</text></svg>