<svg xmlns="http://www.w3.org/2000/svg" width="1120" height="560"><rect width="100%" height="100%" fill="white"/><style>text{font-family:Arial;fill:#111}.w{stroke:#111;stroke-width:4;fill:none}</style><text x="35" y="45" font-size="28" font-weight="bold">Lesson 4 — Rectifier topology tradeoffs</text><text x="110" y="105" font-size="23">Half-wave</text><path class="w" d="M80 220 C120 140 160 140 200 220 C240 300 280 300 320 220"/><path class="w" d="M80 360 C120 280 160 280 200 360 L320 360"/><text x="450" y="105" font-size="23">Full-wave</text><path class="w" d="M420 220 C460 140 500 140 540 220 C580 300 620 300 660 220"/><path class="w" d="M420 360 C460 280 500 280 540 360 C580 280 620 280 660 360"/><text x="810" y="105" font-size="23">Bridge</text><polygon points="880,160 980,260 880,360 780,260" fill="none" stroke="#111" stroke-width="4"/><text x="820" y="430" font-size="21">two diode drops</text><text x="145" y="470" font-size="21">f ripple = f line</text><text x="475" y="470" font-size="21">f ripple = 2f line</text></svg>