<svg xmlns="http://www.w3.org/2000/svg" width="1080" height="520"><rect width="100%" height="100%" fill="white"/><style>text{font-family:Arial;fill:#111}.w{stroke:#111;stroke-width:4;fill:none}</style><text x="35" y="45" font-size="28" font-weight="bold">Lesson 20 — Diode OR-ing</text><rect x="80" y="120" width="150" height="80" class="w"/><text x="120" y="168" font-size="22">Source A</text><rect x="80" y="320" width="150" height="80" class="w"/><text x="120" y="368" font-size="22">Source B</text><line class="w" x1="230" y1="160" x2="430" y2="160"/><polygon points="430,130 490,160 430,190" fill="none" stroke="#111" stroke-width="4"/><line class="w" x1="495" y1="130" x2="495" y2="190"/><line class="w" x1="230" y1="360" x2="430" y2="360"/><polygon points="430,330 490,360 430,390" fill="none" stroke="#111" stroke-width="4"/><line class="w" x1="495" y1="330" x2="495" y2="390"/><line class="w" x1="495" y1="160" x2="650" y2="260"/><line class="w" x1="495" y1="360" x2="650" y2="260"/><rect x="650" y="215" width="180" height="90" class="w"/><text x="705" y="268" font-size="22">Load</text><text x="200" y="455" font-size="22">Highest source after diode drop supplies the load</text></svg>