<svg xmlns="http://www.w3.org/2000/svg" width="1120" height="560"><rect width="100%" height="100%" fill="white"/><style>text{font-family:Arial;fill:#111}.w{stroke:#111;stroke-width:4;fill:none}.t{stroke:#111;stroke-width:2;fill:none}</style><text x="35" y="45" font-size="28" font-weight="bold">Lesson 5 — Reservoir capacitor charges at peaks and discharges into the load</text><path class="t" d="M80 350 C130 150 180 150 230 350 C280 150 330 150 380 350 C430 150 480 150 530 350 C580 150 630 150 680 350 C730 150 780 150 830 350 C880 150 930 150 980 350"/><path class="w" d="M80 350 C120 180 180 170 220 190 L370 300 C410 180 480 170 520 190 L670 300 C710 180 780 170 820 190 L970 300"/><text x="190" y="120" font-size="22">rectified source</text><text x="630" y="120" font-size="22">capacitor voltage</text><text x="390" y="450" font-size="22">larger C → less ripple, narrower and higher charging pulses</text></svg>