<svg xmlns="http://www.w3.org/2000/svg" width="1080" height="520"><rect width="100%" height="100%" fill="white"/><style>text{font-family:Arial;fill:#111}.w{stroke:#111;stroke-width:4;fill:none}.t{stroke:#111;stroke-width:2;fill:none}</style><text x="35" y="45" font-size="28" font-weight="bold">Lesson 13 — Diode clipper</text><line class="w" x1="90" y1="210" x2="260" y2="210"/><polyline class="w" points="260,210 285,190 315,230 345,190 375,230 400,210"/><line class="w" x1="400" y1="210" x2="700" y2="210"/><line class="w" x1="580" y1="210" x2="580" y2="350"/><polygon points="550,280 610,280 580,325" fill="none" stroke="#111" stroke-width="4"/><line class="w" x1="540" y1="335" x2="620" y2="335"/><path class="t" d="M760 350 C800 100 840 100 880 350 C920 100 960 100 1000 350"/><path class="w" d="M760 350 C800 220 840 220 880 350 C920 220 960 220 1000 350"/><text x="725" y="440" font-size="20">input vs clipped output</text></svg>