<svg xmlns="http://www.w3.org/2000/svg" width="1080" height="520"><rect width="100%" height="100%" fill="white"/><style>text{font-family:Arial;fill:#111}.w{stroke:#111;stroke-width:4;fill:none}.t{stroke:#111;stroke-width:2;fill:none}</style><text x="35" y="45" font-size="28" font-weight="bold">Lesson 31 — Envelope detector</text><path class="t" d="M80 300 C120 120 160 120 200 300 C240 480 280 480 320 300 C360 120 400 120 440 300 C480 480 520 480 560 300 C600 120 640 120 680 300 C720 480 760 480 800 300"/><path class="w" d="M80 300 C180 150 320 180 440 220 C560 260 680 170 800 300"/><text x="155" y="105" font-size="22">carrier</text><text x="620" y="155" font-size="22">recovered envelope</text><text x="210" y="470" font-size="22">Choose RC long versus carrier, short versus envelope change</text></svg>