<svg xmlns="http://www.w3.org/2000/svg" width="980" height="540"><rect width="100%" height="100%" fill="white"/><style>text{font-family:Arial;fill:#111}.w{stroke:#111;stroke-width:4;fill:none}.bad{stroke:#b00020;stroke-width:4;fill:none;stroke-dasharray:10 8}</style><text x="40" y="45" font-size="28" font-weight="bold">Lesson 19 — Debugging a simple divider</text><circle class="w" cx="180" cy="280" r="48"/><text x="205" y="268" font-size="24">+</text><text x="205" y="312" font-size="24">−</text><text x="75" y="285" font-size="22">V1 5 V</text><line class="w" x1="180" y1="232" x2="180" y2="110"/><line class="w" x1="180" y1="110" x2="560" y2="110"/><polyline class="w" points="560,110 540,140 580,165 540,190 580,215 560,245"/><text x="610" y="180" font-size="22">R1 1 kΩ</text><line class="w" x1="560" y1="245" x2="560" y2="290"/><circle cx="560" cy="290" r="6" fill="#111"/><text x="580" y="282" font-size="22">VMID 2.5 V</text><polyline class="w" points="560,290 540,320 580,345 540,370 580,395 560,425"/><text x="610" y="365" font-size="22">R2 1 kΩ</text><line class="w" x1="560" y1="425" x2="560" y2="470"/><line class="w" x1="560" y1="470" x2="180" y2="470"/><line class="w" x1="180" y1="470" x2="180" y2="328"/><line class="bad" x1="760" y1="120" x2="900" y2="120"/><text x="735" y="170" font-size="20" fill="#b00020">Try broken wire, wrong suffix, missing ground, reversed source</text></svg>