<svg xmlns="http://www.w3.org/2000/svg" width="980" height="520"><rect width="100%" height="100%" fill="white"/><style>text{font-family:Arial;fill:#111}.w{stroke:#111;stroke-width:4;fill:none}</style><text x="40" y="45" font-size="28" font-weight="bold">Lesson 13 — Thevenin source model</text><circle class="w" cx="190" cy="270" r="50"/><text x="215" y="258" font-size="24">+</text><text x="215" y="302" font-size="24">−</text><text x="60" y="275" font-size="22">VTH 12 V</text><line class="w" x1="190" y1="220" x2="190" y2="120"/><line class="w" x1="190" y1="120" x2="350" y2="120"/><polyline class="w" points="350,120 375,100 400,140 425,100 450,140 475,120"/><text x="370" y="82" font-size="22">RTH 100 Ω</text><line class="w" x1="475" y1="120" x2="720" y2="120"/><text x="590" y="100" font-size="22">VOUT</text><polyline class="w" points="720,120 700,155 740,185 700,215 740,245 720,280"/><text x="765" y="210" font-size="22">RL 900 Ω</text><line class="w" x1="720" y1="280" x2="720" y2="400"/><line class="w" x1="720" y1="400" x2="190" y2="400"/><line class="w" x1="190" y1="400" x2="190" y2="320"/><text x="395" y="455" font-size="22">Loaded output = 10.8 V</text></svg>