<svg xmlns="http://www.w3.org/2000/svg" width="980" height="560"><rect width="100%" height="100%" fill="white"/><style>text{font-family:Arial;fill:#111}.w{stroke:#111;stroke-width:4;fill:none}</style><text x="40" y="45" font-size="28" font-weight="bold">Lesson 15 — Voltmeter loading</text><circle class="w" cx="180" cy="290" r="48"/><text x="205" y="278" font-size="24">+</text><text x="205" y="322" font-size="24">−</text><text x="75" y="295" font-size="22">V1 9 V</text><line class="w" x1="180" y1="242" x2="180" y2="110"/><line class="w" x1="180" y1="110" x2="520" y2="110"/><polyline class="w" points="520,110 500,140 540,165 500,190 540,215 520,245"/><text x="565" y="180" font-size="22">R1 1 MΩ</text><line class="w" x1="520" y1="245" x2="520" y2="290"/><circle cx="520" cy="290" r="6" fill="#111"/><text x="540" y="282" font-size="22">VOUT</text><polyline class="w" points="520,290 500,320 540,345 500,370 540,395 520,425"/><text x="565" y="365" font-size="22">R2 1 MΩ</text><line class="w" x1="520" y1="425" x2="520" y2="480"/><line class="w" x1="520" y1="480" x2="180" y2="480"/><line class="w" x1="180" y1="480" x2="180" y2="338"/><line class="w" x1="520" y1="290" x2="760" y2="290"/><circle class="w" cx="760" cy="360" r="48"/><text x="744" y="370" font-size="28">V</text><text x="815" y="365" font-size="22">10 MΩ</text><line class="w" x1="760" y1="290" x2="760" y2="312"/><line class="w" x1="760" y1="408" x2="760" y2="480"/><line class="w" x1="760" y1="480" x2="520" y2="480"/></svg>