<svg xmlns="http://www.w3.org/2000/svg" width="980" height="560"><rect width="100%" height="100%" fill="white"/><style>text{font-family:Arial;fill:#111}.w{stroke:#111;stroke-width:4;fill:none}</style><text x="40" y="45" font-size="28" font-weight="bold">Lesson 16 — Tolerance corners</text><circle class="w" cx="200" cy="290" r="48"/><text x="225" y="278" font-size="24">+</text><text x="225" y="322" font-size="24">−</text><text x="85" y="295" font-size="22">V1 5 V ±2%</text><line class="w" x1="200" y1="242" x2="200" y2="110"/><line class="w" x1="200" y1="110" x2="570" y2="110"/><polyline class="w" points="570,110 550,140 590,165 550,190 590,215 570,245"/><text x="620" y="180" font-size="22">R1 10 kΩ ±1%</text><line class="w" x1="570" y1="245" x2="570" y2="290"/><circle cx="570" cy="290" r="6" fill="#111"/><text x="590" y="282" font-size="22">VOUT</text><polyline class="w" points="570,290 550,320 590,345 550,370 590,395 570,425"/><text x="620" y="365" font-size="22">R2 10 kΩ ±1%</text><line class="w" x1="570" y1="425" x2="570" y2="480"/><line class="w" x1="570" y1="480" x2="200" y2="480"/><line class="w" x1="200" y1="480" x2="200" y2="338"/><text x="360" y="530" font-size="22">Evaluate low/high corner combinations</text></svg>