<svg xmlns="http://www.w3.org/2000/svg" width="1000" height="380" viewBox="0 0 1000 380"><rect width="100%" height="100%" fill="white"/><text x="30" y="35" font-family="sans-serif" font-size="22">Lesson 7 — Kirchhoff's Voltage Law</text><circle cx="140" cy="190" r="45" fill="none" stroke="black" stroke-width="3"/><text x="117" y="198" font-family="sans-serif" font-size="22">12 V</text><line x1="140" y1="145" x2="140" y2="90" stroke="black" stroke-width="3"/><line x1="140" y1="90" x2="300" y2="90" stroke="black" stroke-width="3"/><polyline points="300,90 325,70 350,110 375,70 400,110 425,70 450,90" fill="none" stroke="black" stroke-width="3"/><text x="335" y="55" font-family="sans-serif" font-size="18">R1 1 kΩ</text><line x1="450" y1="90" x2="580" y2="90" stroke="black" stroke-width="3"/><circle cx="580" cy="90" r="6" fill="black"/><text x="545" y="75" font-family="sans-serif" font-size="18">VMID</text><polyline points="580,90 560,120 600,150 560,180 600,210 560,240 580,270" fill="none" stroke="black" stroke-width="3"/><text x="620" y="180" font-family="sans-serif" font-size="18">R2 2 kΩ</text><line x1="580" y1="270" x2="580" y2="310" stroke="black" stroke-width="3"/><line x1="580" y1="310" x2="140" y2="310" stroke="black" stroke-width="3"/><line x1="140" y1="235" x2="140" y2="310" stroke="black" stroke-width="3"/><text x="330" y="350" font-family="sans-serif" font-size="18">+12 V − 4 V − 8 V = 0</text></svg>