<svg xmlns="http://www.w3.org/2000/svg" width="1000" height="420" viewBox="0 0 1000 420"><rect width="100%" height="100%" fill="white"/><text x="30" y="35" font-family="sans-serif" font-size="22">Lesson 6 — Kirchhoff's Current Law</text><circle cx="130" cy="210" r="45" fill="none" stroke="black" stroke-width="3"/><text x="110" y="218" font-family="sans-serif" font-size="22">10 V</text><line x1="130" y1="165" x2="130" y2="90" stroke="black" stroke-width="3"/><line x1="130" y1="90" x2="300" y2="90" stroke="black" stroke-width="3"/><polyline points="300,90 325,70 350,110 375,70 400,110 425,70 450,90" fill="none" stroke="black" stroke-width="3"/><text x="335" y="55" font-family="sans-serif" font-size="18">R1 1 kΩ</text><line x1="450" y1="90" x2="580" y2="90" stroke="black" stroke-width="3"/><circle cx="580" cy="90" r="6" fill="black"/><text x="540" y="75" font-family="sans-serif" font-size="18">NODE_A</text><line x1="580" y1="90" x2="580" y2="140" stroke="black" stroke-width="3"/><line x1="580" y1="140" x2="500" y2="140" stroke="black" stroke-width="3"/><line x1="580" y1="140" x2="660" y2="140" stroke="black" stroke-width="3"/><polyline points="500,140 480,170 520,200 480,230 520,260 500,290" fill="none" stroke="black" stroke-width="3"/><polyline points="660,140 640,170 680,200 640,230 680,260 660,290" fill="none" stroke="black" stroke-width="3"/><text x="420" y="220" font-family="sans-serif" font-size="18">R2 2 kΩ</text><text x="700" y="220" font-family="sans-serif" font-size="18">R3 2 kΩ</text><line x1="500" y1="290" x2="500" y2="330" stroke="black" stroke-width="3"/><line x1="660" y1="290" x2="660" y2="330" stroke="black" stroke-width="3"/><line x1="130" y1="255" x2="130" y2="330" stroke="black" stroke-width="3"/><line x1="130" y1="330" x2="660" y2="330" stroke="black" stroke-width="3"/><text x="560" y="370" font-family="sans-serif" font-size="18">node 0</text></svg>