<svg xmlns="http://www.w3.org/2000/svg" width="1000" height="420" viewBox="0 0 1000 420"><rect width="100%" height="100%" fill="white"/><text x="30" y="35" font-family="sans-serif" font-size="22">Lesson 9 — Parallel resistors</text><circle cx="140" cy="210" r="45" fill="none" stroke="black" stroke-width="3"/><text x="118" y="218" font-family="sans-serif" font-size="22">12 V</text><line x1="140" y1="165" x2="140" y2="90" stroke="black" stroke-width="3"/><line x1="140" y1="90" x2="800" y2="90" stroke="black" stroke-width="3"/><line x1="140" y1="255" x2="140" y2="330" stroke="black" stroke-width="3"/><line x1="140" y1="330" x2="800" y2="330" stroke="black" stroke-width="3"/><polyline points="350,90 330,125 370,160 330,195 370,230 330,265 350,330" fill="none" stroke="black" stroke-width="3"/><polyline points="550,90 530,125 570,160 530,195 570,230 530,265 550,330" fill="none" stroke="black" stroke-width="3"/><polyline points="750,90 730,125 770,160 730,195 770,230 730,265 750,330" fill="none" stroke="black" stroke-width="3"/><text x="290" y="210" font-family="sans-serif" font-size="18">R1 1 kΩ</text><text x="490" y="210" font-family="sans-serif" font-size="18">R2 2 kΩ</text><text x="690" y="210" font-family="sans-serif" font-size="18">R3 3 kΩ</text><text x="390" y="380" font-family="sans-serif" font-size="18">Same 12 V across every branch</text></svg>