<svg xmlns="http://www.w3.org/2000/svg" width="900" height="500" viewBox="0 0 900 500"><rect width="100%" height="100%" fill="white"/><style>text{font-family:Arial,sans-serif;fill:#111}.w{stroke:#111;stroke-width:4;fill:none}.s{stroke:#111;stroke-width:3;fill:white}</style><text x="40" y="45" font-size="28" font-weight="bold">Lesson 4 — Energy and power</text><circle class="s" cx="250" cy="250" r="55"/><text x="275" y="235" font-size="25">+</text><text x="275" y="280" font-size="25">−</text><text x="155" y="250" font-size="24">V1 5 V</text><line class="w" x1="250" y1="195" x2="250" y2="120"/><line class="w" x1="250" y1="120" x2="650" y2="120"/><polyline class="w" points="650,120 650,150 630,165 670,185 630,205 670,225 630,245 670,265 650,280 650,310"/><text x="690" y="220" font-size="24">R1 1 kΩ</text><line class="w" x1="650" y1="310" x2="650" y2="380"/><line class="w" x1="650" y1="380" x2="250" y2="380"/><line class="w" x1="250" y1="380" x2="250" y2="305"/><text x="400" y="105" font-size="22">VIN = 5 V</text><text x="390" y="415" font-size="22">I = 5 mA, P(R1) = 25 mW</text></svg>