<svg xmlns="http://www.w3.org/2000/svg" width="900" height="560"><rect width="100%" height="100%" fill="white"/><style>text{font-family:Arial;fill:#111}.w{stroke:#111;stroke-width:4;fill:none}</style><text x="40" y="45" font-size="28" font-weight="bold">Lesson 11 — Voltage divider</text><circle class="w" cx="220" cy="280" r="50"/><text x="245" y="268" font-size="24">+</text><text x="245" y="312" font-size="24">−</text><text x="95" y="285" font-size="22">V1 12 V</text><line class="w" x1="220" y1="230" x2="220" y2="110"/><line class="w" x1="220" y1="110" x2="580" y2="110"/><polyline class="w" points="580,110 560,140 600,165 560,190 600,215 580,245"/><text x="625" y="180" font-size="22">R1 10 kΩ</text><circle cx="580" cy="280" r="6" fill="#111"/><line class="w" x1="580" y1="245" x2="580" y2="315"/><text x="600" y="287" font-size="22">VOUT = 6 V</text><polyline class="w" points="580,315 560,340 600,365 560,390 600,415 580,445"/><text x="625" y="385" font-size="22">R2 10 kΩ</text><line class="w" x1="580" y1="445" x2="580" y2="470"/><line class="w" x1="580" y1="470" x2="220" y2="470"/><line class="w" x1="220" y1="470" x2="220" y2="330"/></svg>