<svg xmlns="http://www.w3.org/2000/svg" width="1000" height="560" viewBox="0 0 1000 560"><rect width="100%" height="100%" fill="white"/><style>text{font-family:Arial,sans-serif;fill:#111}.w{stroke:#111;stroke-width:4;fill:none}.r{stroke:#111;stroke-width:4;fill:none}</style><text x="40" y="45" font-size="28" font-weight="bold">Lesson 10 — Mixed resistor network</text><circle cx="180" cy="280" r="48" class="w"/><text x="205" y="268" font-size="24">+</text><text x="205" y="312" font-size="24">−</text><text x="80" y="285" font-size="22">V1 12 V</text><line class="w" x1="180" y1="232" x2="180" y2="120"/><line class="w" x1="180" y1="120" x2="330" y2="120"/><polyline class="r" points="330,120 350,100 375,140 400,100 425,140 450,120"/><text x="350" y="85" font-size="22">R1 1 kΩ</text><line class="w" x1="450" y1="120" x2="600" y2="120"/><circle cx="600" cy="120" r="6" fill="#111"/><text x="615" y="110" font-size="21">VX</text><line class="w" x1="600" y1="120" x2="600" y2="200"/><line class="w" x1="600" y1="200" x2="500" y2="200"/><line class="w" x1="600" y1="200" x2="700" y2="200"/><polyline class="r" points="500,200 480,225 520,250 480,275 520,300 500,325"/><polyline class="r" points="700,200 680,225 720,250 680,275 720,300 700,325"/><text x="405" y="265" font-size="22">R2 2 kΩ</text><text x="735" y="265" font-size="22">R3 3 kΩ</text><line class="w" x1="500" y1="325" x2="500" y2="400"/><line class="w" x1="700" y1="325" x2="700" y2="400"/><line class="w" x1="500" y1="400" x2="700" y2="400"/><line class="w" x1="600" y1="400" x2="180" y2="400"/><line class="w" x1="180" y1="400" x2="180" y2="328"/><text x="420" y="455" font-size="22">R1 + (R2 || R3)</text></svg>