<svg xmlns="http://www.w3.org/2000/svg" width="980" height="580"><rect width="100%" height="100%" fill="white"/><style>text{font-family:Arial;fill:#111}.w{stroke:#111;stroke-width:4;fill:none}</style><text x="40" y="45" font-size="28" font-weight="bold">Lesson 12 — Loaded voltage divider</text><circle class="w" cx="180" cy="290" r="48"/><text x="205" y="278" font-size="24">+</text><text x="205" y="322" font-size="24">−</text><text x="65" y="295" font-size="22">V1 12 V</text><line class="w" x1="180" y1="242" x2="180" y2="110"/><line class="w" x1="180" y1="110" x2="540" y2="110"/><polyline class="w" points="540,110 520,140 560,165 520,190 560,215 540,245"/><text x="580" y="180" font-size="22">R1 10 kΩ</text><line class="w" x1="540" y1="245" x2="540" y2="290"/><circle cx="540" cy="290" r="6" fill="#111"/><text x="560" y="282" font-size="22">VOUT</text><polyline class="w" points="540,290 520,320 560,345 520,370 560,395 540,425"/><text x="580" y="365" font-size="22">R2 10 kΩ</text><line class="w" x1="540" y1="425" x2="540" y2="480"/><line class="w" x1="540" y1="480" x2="180" y2="480"/><line class="w" x1="180" y1="480" x2="180" y2="338"/><line class="w" x1="540" y1="290" x2="760" y2="290"/><polyline class="w" points="760,290 740,320 780,345 740,370 780,395 760,425"/><text x="800" y="365" font-size="22">RL 10 kΩ</text><line class="w" x1="760" y1="425" x2="760" y2="480"/><line class="w" x1="760" y1="480" x2="540" y2="480"/><text x="375" y="535" font-size="22">R2 and RL are in parallel</text></svg>