<svg xmlns="http://www.w3.org/2000/svg" width="900" height="420" viewBox="0 0 900 420"><rect width="900" height="420" fill="white"/><text x="40" y="45" font-family="sans-serif" font-size="26" font-weight="bold">Lesson 2 — Constant current charging a capacitor</text><line x1="220" y1="120" x2="600" y2="120" stroke="black" stroke-width="3"/><line x1="220" y1="300" x2="600" y2="300" stroke="black" stroke-width="3"/><circle cx="220" cy="210" r="55" fill="white" stroke="black" stroke-width="3"/><line x1="220" y1="120" x2="220" y2="155" stroke="black" stroke-width="3"/><line x1="220" y1="265" x2="220" y2="300" stroke="black" stroke-width="3"/><line x1="220" y1="245" x2="220" y2="175" stroke="black" stroke-width="3"/><polygon points="220,165 208,188 232,188" fill="black"/><text x="135" y="205" font-family="sans-serif" font-size="20">I1</text><text x="90" y="232" font-family="sans-serif" font-size="17">1 mA pulse</text><line x1="580" y1="170" x2="620" y2="170" stroke="black" stroke-width="4"/><line x1="580" y1="250" x2="620" y2="250" stroke="black" stroke-width="4"/><line x1="600" y1="120" x2="600" y2="170" stroke="black" stroke-width="3"/><line x1="600" y1="250" x2="600" y2="300" stroke="black" stroke-width="3"/><text x="650" y="208" font-family="sans-serif" font-size="20">C1 = 1 µF</text><text x="410" y="105" font-family="sans-serif" font-size="19">VCAP</text><line x1="600" y1="300" x2="600" y2="330" stroke="black" stroke-width="3"/><line x1="575" y1="330" x2="625" y2="330" stroke="black" stroke-width="3"/><line x1="583" y1="340" x2="617" y2="340" stroke="black" stroke-width="3"/><line x1="592" y1="350" x2="608" y2="350" stroke="black" stroke-width="3"/><text x="105" y="390" font-family="monospace" font-size="18">.tran 10u 6m uic</text></svg>