<svg xmlns="http://www.w3.org/2000/svg" width="1080" height="580"><rect width="100%" height="100%" fill="white"/><style>text{font-family:Arial;fill:#111}.w{stroke:#111;stroke-width:4;fill:none}</style><text x="40" y="45" font-size="28" font-weight="bold">Lesson 20 — Sensor divider capstone</text><circle class="w" cx="150" cy="300" r="48"/><text x="175" y="288" font-size="24">+</text><text x="175" y="332" font-size="24">−</text><text x="40" y="305" font-size="21">VS 0–12 V</text><line class="w" x1="150" y1="252" x2="150" y2="120"/><line class="w" x1="150" y1="120" x2="280" y2="120"/><polyline class="w" points="280,120 305,100 330,140 355,100 380,140 405,120"/><text x="295" y="78" font-size="20">RS 1 kΩ</text><line class="w" x1="405" y1="120" x2="520" y2="120"/><polyline class="w" points="520,120 500,150 540,175 500,200 540,225 520,255"/><text x="565" y="190" font-size="21">R1 30 kΩ</text><line class="w" x1="520" y1="255" x2="520" y2="300"/><circle cx="520" cy="300" r="6" fill="#111"/><text x="540" y="292" font-size="22">VADC</text><polyline class="w" points="520,300 500,330 540,355 500,380 540,405 520,435"/><text x="565" y="375" font-size="21">R2 10 kΩ</text><line class="w" x1="520" y1="435" x2="520" y2="500"/><line class="w" x1="520" y1="500" x2="150" y2="500"/><line class="w" x1="150" y1="500" x2="150" y2="348"/><line class="w" x1="520" y1="300" x2="760" y2="300"/><polyline class="w" points="760,300 740,330 780,355 740,380 780,405 760,435"/><text x="805" y="375" font-size="21">RADC 1 MΩ</text><line class="w" x1="760" y1="435" x2="760" y2="500"/><line class="w" x1="760" y1="500" x2="520" y2="500"/><rect x="860" y="240" width="150" height="120" class="w"/><text x="900" y="305" font-size="24">ADC</text><line class="w" x1="760" y1="300" x2="860" y2="300"/></svg>