<svg xmlns="http://www.w3.org/2000/svg" width="980" height="520"><rect width="100%" height="100%" fill="white"/><style>text{font-family:Arial;fill:#111}.w{stroke:#111;stroke-width:4;fill:none}</style><text x="40" y="45" font-size="28" font-weight="bold">Lesson 18 — Selecting an LED resistor</text><circle class="w" cx="180" cy="270" r="48"/><text x="205" y="258" font-size="24">+</text><text x="205" y="302" font-size="24">−</text><text x="70" y="275" font-size="22">V1 5 V</text><line class="w" x1="180" y1="222" x2="180" y2="110"/><line class="w" x1="180" y1="110" x2="420" y2="110"/><polyline class="w" points="420,110 445,90 470,130 495,90 520,130 545,110"/><text x="445" y="70" font-size="22">R1 390 Ω</text><line class="w" x1="545" y1="110" x2="720" y2="110"/><circle class="w" cx="720" cy="270" r="48"/><text x="675" y="275" font-size="21">3 V drop</text><line class="w" x1="720" y1="110" x2="720" y2="222"/><line class="w" x1="720" y1="318" x2="720" y2="410"/><line class="w" x1="720" y1="410" x2="180" y2="410"/><line class="w" x1="180" y1="410" x2="180" y2="318"/><text x="370" y="465" font-size="22">I ≈ (5 V − 2 V) / 390 Ω</text></svg>