<svg xmlns="http://www.w3.org/2000/svg" width="1050" height="360" viewBox="0 0 1050 360"><rect width="100%" height="100%" fill="white"/><text x="30" y="35" font-family="sans-serif" font-size="22">Lesson 8 — Series resistors</text><circle cx="110" cy="180" r="42" fill="none" stroke="black" stroke-width="3"/><text x="88" y="188" font-family="sans-serif" font-size="21">10 V</text><line x1="110" y1="138" x2="110" y2="90" stroke="black" stroke-width="3"/><line x1="110" y1="90" x2="220" y2="90" stroke="black" stroke-width="3"/><polyline points="220,90 245,70 270,110 295,70 320,110 345,70 370,90" fill="none" stroke="black" stroke-width="3"/><text x="250" y="55" font-family="sans-serif" font-size="17">R1 1 kΩ</text><line x1="370" y1="90" x2="450" y2="90" stroke="black" stroke-width="3"/><circle cx="450" cy="90" r="5" fill="black"/><text x="435" y="70" font-family="sans-serif" font-size="17">N1</text><polyline points="450,90 475,70 500,110 525,70 550,110 575,70 600,90" fill="none" stroke="black" stroke-width="3"/><text x="490" y="55" font-family="sans-serif" font-size="17">R2 2 kΩ</text><line x1="600" y1="90" x2="680" y2="90" stroke="black" stroke-width="3"/><circle cx="680" cy="90" r="5" fill="black"/><text x="665" y="70" font-family="sans-serif" font-size="17">N2</text><polyline points="680,90 705,70 730,110 755,70 780,110 805,70 830,90" fill="none" stroke="black" stroke-width="3"/><text x="720" y="55" font-family="sans-serif" font-size="17">R3 2 kΩ</text><line x1="830" y1="90" x2="900" y2="90" stroke="black" stroke-width="3"/><line x1="900" y1="90" x2="900" y2="270" stroke="black" stroke-width="3"/><line x1="900" y1="270" x2="110" y2="270" stroke="black" stroke-width="3"/><line x1="110" y1="222" x2="110" y2="270" stroke="black" stroke-width="3"/><text x="420" y="320" font-family="sans-serif" font-size="18">Same current through all three resistors</text></svg>