<svg xmlns="http://www.w3.org/2000/svg" width="980" height="540"><rect width="100%" height="100%" fill="white"/><style>text{font-family:Arial;fill:#111}.w{stroke:#111;stroke-width:4;fill:none}</style><text x="40" y="45" font-size="28" font-weight="bold">Lesson 14 — Norton source model</text><circle class="w" cx="250" cy="280" r="52"/><line class="w" x1="250" y1="310" x2="250" y2="245"/><polyline class="w" points="235,265 250,245 265,265"/><text x="90" y="285" font-size="22">IN 120 mA</text><line class="w" x1="250" y1="228" x2="250" y2="120"/><line class="w" x1="250" y1="120" x2="760" y2="120"/><line class="w" x1="250" y1="332" x2="250" y2="430"/><line class="w" x1="250" y1="430" x2="760" y2="430"/><polyline class="w" points="480,120 460,155 500,185 460,215 500,245 480,280"/><line class="w" x1="480" y1="280" x2="480" y2="430"/><text x="515" y="210" font-size="22">RN 100 Ω</text><polyline class="w" points="760,120 740,155 780,185 740,215 780,245 760,280"/><line class="w" x1="760" y1="280" x2="760" y2="430"/><text x="805" y="210" font-size="22">RL 900 Ω</text><text x="575" y="95" font-size="22">VOUT = 10.8 V</text></svg>