<svg xmlns="http://www.w3.org/2000/svg" width="1000" height="540"><rect width="100%" height="100%" fill="white"/><style>text{font-family:Arial;fill:#111}.w{stroke:#111;stroke-width:4;fill:none}</style><text x="35" y="45" font-size="28" font-weight="bold">Lesson 8 — Coupled inductors and transformer polarity</text><path class="w" d="M300 160 c-35 20 -35 40 0 60 c35 20 35 40 0 60 c-35 20 -35 40 0 60"/><path class="w" d="M650 160 c35 20 35 40 0 60 c-35 20 -35 40 0 60 c35 20 35 40 0 60"/><line class="w" x1="450" y1="130" x2="450" y2="380"/><line class="w" x1="500" y1="130" x2="500" y2="380"/><circle cx="280" cy="145" r="7" fill="#111"/><circle cx="670" cy="145" r="7" fill="#111"/><text x="235" y="125" font-size="20">dot</text><text x="675" y="125" font-size="20">dot</text><text x="160" y="255" font-size="24">Primary N1</text><text x="705" y="255" font-size="24">Secondary N2</text><text x="315" y="440" font-size="22">V2/V1 = N2/N1</text><text x="315" y="475" font-size="22">Zin = (N1/N2)² Zload</text></svg>