<svg xmlns="http://www.w3.org/2000/svg" width="1100" height="540"><rect width="100%" height="100%" fill="white"/><style>text{font-family:Arial;fill:#111}.w{stroke:#111;stroke-width:4;fill:none}.t{stroke:#111;stroke-width:2;fill:none}</style><text x="35" y="45" font-size="28" font-weight="bold">Lesson 27 — RC pulse shaping</text><text x="100" y="100" font-size="22">Integrator: pulse becomes a ramp</text><path class="t" d="M80 220 L150 220 L150 140 L220 140 L220 220 L300 220"/><path class="w" d="M80 300 C150 300 170 260 220 240 C260 225 290 220 330 220"/><text x="650" y="100" font-size="22">Differentiator: edges become pulses</text><path class="t" d="M620 220 L700 220 L700 140 L800 140 L800 220 L900 220"/><path class="w" d="M620 320 L700 320 C710 240 760 300 800 320 C810 390 860 340 900 320"/><text x="270" y="475" font-size="22">Choose RC large for integration, small for differentiation</text></svg>