<svg xmlns="http://www.w3.org/2000/svg" width="1120" height="560"><rect width="100%" height="100%" fill="white"/><style>text{font-family:Arial;fill:#111}.w{stroke:#111;stroke-width:4;fill:none}.a{stroke:#111;stroke-width:3;fill:none;marker-end:url(#m)}</style><defs><marker id="m" markerWidth="10" markerHeight="10" refX="8" refY="3" orient="auto"><path d="M0,0 L0,6 L9,3 z" fill="#111"/></marker></defs><text x="35" y="45" font-size="28" font-weight="bold">Lesson 26 — Complete capacitor-energy lifecycle</text><rect x="60" y="170" width="170" height="90" class="w"/><text x="105" y="222" font-size="22">48 V input</text><line x1="230" y1="215" x2="370" y2="215" class="a"/><rect x="370" y="150" width="210" height="130" class="w"/><text x="420" y="195" font-size="22">Precharge</text><text x="400" y="230" font-size="18">resistor + bypass</text><line x1="580" y1="215" x2="720" y2="215" class="a"/><rect x="720" y="150" width="210" height="130" class="w"/><text x="760" y="195" font-size="22">DC-link + load</text><text x="755" y="230" font-size="18">hold-up energy</text><line x1="825" y1="280" x2="825" y2="380" class="a"/><rect x="700" y="380" width="250" height="90" class="w"/><text x="745" y="432" font-size="22">Bleeder / active discharge</text><text x="120" y="380" font-size="21">Verify:</text><text x="120" y="415" font-size="19">• inrush and bypass surge</text><text x="120" y="445" font-size="19">• ride-through time</text><text x="120" y="475" font-size="19">• safe shutdown voltage</text></svg>