<svg xmlns="http://www.w3.org/2000/svg" width="1100" height="540"><rect width="100%" height="100%" fill="white"/><style>text{font-family:Arial;fill:#111}.w{stroke:#111;stroke-width:4;fill:none}</style><text x="35" y="45" font-size="28" font-weight="bold">Lesson 19 — A physical connection is R + L + capacitance</text><line class="w" x1="90" y1="200" x2="230" y2="200"/><polyline class="w" points="230,200 255,180 285,220 315,180 345,220 370,200"/><text x="270" y="155" font-size="22">trace R</text><line class="w" x1="370" y1="200" x2="460" y2="200"/><path class="w" d="M460 200 c20 -35 40 -35 60 0 c20 35 40 35 60 0 c20 -35 40 -35 60 0"/><text x="510" y="155" font-size="22">loop L</text><line class="w" x1="640" y1="200" x2="930" y2="200"/><line class="w" x1="720" y1="200" x2="720" y2="320"/><line class="w" x1="695" y1="320" x2="745" y2="320"/><line class="w" x1="695" y1="350" x2="745" y2="350"/><line class="w" x1="720" y1="350" x2="720" y2="430"/><text x="760" y="340" font-size="22">capacitance to return</text><text x="160" y="475" font-size="22">Fast current edge → V = L·di/dt; shared path → ground bounce and coupling</text></svg>