<svg xmlns="http://www.w3.org/2000/svg" width="1050" height="560"><rect width="100%" height="100%" fill="white"/><style>text{font-family:Arial;fill:#111}.w{stroke:#111;stroke-width:4;fill:none}</style><text x="35" y="45" font-size="28" font-weight="bold">Lesson 6 — Relay coil with flyback path</text><line class="w" x1="220" y1="100" x2="220" y2="180"/><text x="175" y="88" font-size="22">+12 V</text><polyline class="w" points="220,180 200,205 240,230 200,255 240,280 220,305"/><text x="260" y="250" font-size="22">120 Ω coil resistance</text><path class="w" d="M220 305 c-35 20 -35 40 0 60 c35 20 35 40 0 60"/><text x="265" y="380" font-size="22">100 mH coil</text><line class="w" x1="220" y1="425" x2="220" y2="475"/><rect x="180" y="475" width="80" height="35" class="w"/><text x="285" y="502" font-size="22">switch</text><line class="w" x1="220" y1="510" x2="220" y2="535"/><line class="w" x1="190" y1="535" x2="250" y2="535"/><line class="w" x1="200" y1="548" x2="240" y2="548"/><line class="w" x1="210" y1="559" x2="230" y2="559"/><line class="w" x1="220" y1="180" x2="650" y2="180"/><line class="w" x1="650" y1="180" x2="650" y2="425"/><polygon points="625,290 675,290 650,330" fill="none" stroke="#111" stroke-width="4"/><line class="w" x1="625" y1="340" x2="675" y2="340"/><text x="700" y="320" font-size="22">flyback diode</text><line class="w" x1="650" y1="425" x2="220" y2="425"/><text x="475" y="500" font-size="22">At turn-off, current circulates through coil + diode</text></svg>