<svg xmlns="http://www.w3.org/2000/svg" width="1050" height="540"><rect width="100%" height="100%" fill="white"/><style>text{font-family:Arial;fill:#111}.w{stroke:#111;stroke-width:4;fill:none}</style><text x="35" y="45" font-size="28" font-weight="bold">Lesson 10 — PWM-driven RL load</text><rect x="100" y="170" width="110" height="80" class="w"/><text x="125" y="220" font-size="23">PWM</text><line class="w" x1="210" y1="210" x2="350" y2="210"/><polyline class="w" points="350,210 375,190 405,230 435,190 465,230 490,210"/><text x="375" y="165" font-size="22">12 Ω</text><line class="w" x1="490" y1="210" x2="580" y2="210"/><path class="w" d="M580 210 c20 -35 40 -35 60 0 c20 35 40 35 60 0 c20 -35 40 -35 60 0"/><text x="625" y="165" font-size="22">24 mH</text><line class="w" x1="760" y1="210" x2="870" y2="210"/><line class="w" x1="870" y1="210" x2="870" y2="390"/><line class="w" x1="870" y1="390" x2="100" y2="390"/><line class="w" x1="100" y1="390" x2="100" y2="250"/><text x="260" y="460" font-size="22">Voltage switches quickly; current changes gradually according to L/R</text></svg>