<svg xmlns="http://www.w3.org/2000/svg" width="1050" height="520"><rect width="100%" height="100%" fill="white"/><style>text{font-family:Arial;fill:#111}.w{stroke:#111;stroke-width:4;fill:none}</style><text x="35" y="45" font-size="28" font-weight="bold">Lesson 7 — Practical inductor model</text><line class="w" x1="90" y1="180" x2="240" y2="180"/><polyline class="w" points="240,180 265,155 295,205 325,155 355,205 380,180"/><text x="265" y="130" font-size="22">DCR</text><line class="w" x1="380" y1="180" x2="470" y2="180"/><path class="w" d="M470 180 c20 -35 40 -35 60 0 c20 35 40 35 60 0 c20 -35 40 -35 60 0"/><text x="530" y="130" font-size="22">L(I)</text><line class="w" x1="650" y1="180" x2="920" y2="180"/><line class="w" x1="500" y1="300" x2="500" y2="410"/><line class="w" x1="540" y1="300" x2="540" y2="410"/><line class="w" x1="500" y1="300" x2="540" y2="300"/><line class="w" x1="500" y1="410" x2="540" y2="410"/><text x="565" y="365" font-size="22">parasitic C</text><line class="w" x1="520" y1="300" x2="520" y2="180"/><line class="w" x1="520" y1="410" x2="520" y2="455"/><line class="w" x1="440" y1="455" x2="600" y2="455"/><text x="650" y="345" font-size="22">Core loss, saturation, and heating are current/frequency dependent</text></svg>