<svg xmlns="http://www.w3.org/2000/svg" width="1050" height="520"><rect width="100%" height="100%" fill="white"/><style>text{font-family:Arial;fill:#111}.w{stroke:#111;stroke-width:4;fill:none}</style><text x="35" y="45" font-size="28" font-weight="bold">Lesson 3 — Practical capacitor model</text><line class="w" x1="100" y1="170" x2="240" y2="170"/><polyline class="w" points="240,170 260,150 285,190 310,150 335,190 360,170"/><text x="260" y="125" font-size="22">ESR</text><line class="w" x1="360" y1="170" x2="470" y2="170"/><path class="w" d="M470 170 c20 -35 40 -35 60 0 c20 35 40 35 60 0 c20 -35 40 -35 60 0"/><text x="535" y="125" font-size="22">ESL</text><line class="w" x1="650" y1="170" x2="760" y2="170"/><line class="w" x1="760" y1="130" x2="760" y2="210"/><line class="w" x1="800" y1="130" x2="800" y2="210"/><line class="w" x1="800" y1="170" x2="930" y2="170"/><text x="745" y="105" font-size="22">C</text><line class="w" x1="760" y1="270" x2="760" y2="390"/><line class="w" x1="800" y1="270" x2="800" y2="390"/><line class="w" x1="760" y1="270" x2="800" y2="270"/><polyline class="w" points="780,270 760,295 800,320 760,345 800,370 780,390"/><text x="825" y="338" font-size="22">Rleak</text><line class="w" x1="760" y1="390" x2="800" y2="390"/><line class="w" x1="760" y1="210" x2="760" y2="270"/><line class="w" x1="800" y1="210" x2="800" y2="270"/><text x="170" y="465" font-size="22">Fast edge → ESL spike   |   Current step → ESR jump   |   Longer pulse → C droop   |   Long time → leakage</text></svg>