<svg xmlns="http://www.w3.org/2000/svg" width="1120" height="560"><rect width="100%" height="100%" fill="white"/><style>text{font-family:Arial;fill:#111}.w{stroke:#111;stroke-width:4;fill:none}.a{stroke:#111;stroke-width:3;fill:none;marker-end:url(#m)}</style><defs><marker id="m" markerWidth="10" markerHeight="10" refX="8" refY="3" orient="auto"><path d="M0,0 L0,6 L9,3 z" fill="#111"/></marker></defs><text x="35" y="45" font-size="28" font-weight="bold">Lesson 21 — Passive transient design review flow</text><rect x="70" y="120" width="180" height="80" class="w"/><text x="105" y="168" font-size="22">Requirements</text><line x1="250" y1="160" x2="350" y2="160" class="a"/><rect x="350" y="120" width="190" height="80" class="w"/><text x="380" y="155" font-size="21">Energy stores</text><text x="390" y="182" font-size="18">and current paths</text><line x1="540" y1="160" x2="640" y2="160" class="a"/><rect x="640" y="120" width="190" height="80" class="w"/><text x="685" y="155" font-size="21">Nominal</text><text x="675" y="182" font-size="18">calculations</text><line x1="830" y1="160" x2="930" y2="160" class="a"/><rect x="930" y="120" width="150" height="80" class="w"/><text x="960" y="168" font-size="21">Simulation</text><line x1="1005" y1="200" x2="1005" y2="310" class="a"/><rect x="880" y="310" width="200" height="80" class="w"/><text x="915" y="345" font-size="21">Corners and</text><text x="930" y="372" font-size="18">pulse stress</text><line x1="880" y1="350" x2="740" y2="350" class="a"/><rect x="540" y="310" width="200" height="80" class="w"/><text x="580" y="345" font-size="21">Parasitics and</text><text x="590" y="372" font-size="18">measurement</text><line x1="540" y1="350" x2="390" y2="350" class="a"/><rect x="180" y="310" width="210" height="80" class="w"/><text x="225" y="345" font-size="21">Pass/fail and</text><text x="220" y="372" font-size="18">hardware plan</text><text x="260" y="480" font-size="22">Review current, energy, timing, ratings, tolerance, layout, and measurement together</text></svg>