<svg xmlns="http://www.w3.org/2000/svg" width="1100" height="560"><rect width="100%" height="100%" fill="white"/><style>text{font-family:Arial;fill:#111}.w{stroke:#111;stroke-width:4;fill:none}.thin{stroke:#111;stroke-width:2;fill:none}</style><text x="35" y="45" font-size="28" font-weight="bold">Lesson 13 — Load-step current comes from different places over time</text><rect x="80" y="170" width="160" height="90" class="w"/><text x="105" y="220" font-size="22">Regulator</text><line class="w" x1="240" y1="215" x2="380" y2="215"/><polyline class="w" points="380,215 400,195 425,235 450,195 475,235 495,215"/><text x="395" y="175" font-size="20">path R/L</text><line class="w" x1="495" y1="215" x2="760" y2="215"/><rect x="760" y="170" width="180" height="90" class="w"/><text x="805" y="220" font-size="22">Pulsed load</text><line class="w" x1="610" y1="215" x2="610" y2="320"/><line class="w" x1="580" y1="320" x2="640" y2="320"/><line class="w" x1="580" y1="350" x2="640" y2="350"/><line class="w" x1="610" y1="350" x2="610" y2="430"/><text x="650" y="340" font-size="21">local capacitor bank</text><line class="w" x1="610" y1="430" x2="850" y2="430"/><line class="w" x1="850" y1="430" x2="850" y2="260"/><path class="thin" d="M120 500 L180 500 L180 450 L240 450 L240 500 L300 500"/><text x="330" y="495" font-size="20">fast edge → ESL, then ESR, then C, then regulator recovery</text></svg>