<svg xmlns="http://www.w3.org/2000/svg" width="1160" height="600"><rect width="100%" height="100%" fill="white"/><style>text{font-family:Arial;fill:#111}.w{stroke:#111;stroke-width:4;fill:none}.a{stroke:#111;stroke-width:3;fill:none;marker-end:url(#m)}</style><defs><marker id="m" markerWidth="10" markerHeight="10" refX="8" refY="3" orient="auto"><path d="M0,0 L0,6 L9,3 z" fill="#111"/></marker></defs><text x="35" y="45" font-size="28" font-weight="bold">Lesson 40 — Volume 2 final capstone</text><rect x="45" y="150" width="170" height="90" class="w"/><text x="90" y="202" font-size="22">24 V input</text><line x1="215" y1="195" x2="325" y2="195" class="a"/><rect x="325" y="130" width="220" height="130" class="w"/><text x="365" y="175" font-size="22">Precharge / hold-up</text><text x="375" y="210" font-size="18">fault + discharge</text><line x1="545" y1="195" x2="655" y2="195" class="a"/><rect x="655" y="130" width="200" height="130" class="w"/><text x="700" y="175" font-size="22">5 V / 3.3 V rails</text><text x="690" y="210" font-size="18">decoupling + aging</text><line x1="855" y1="195" x2="965" y2="195" class="a"/><rect x="965" y="150" width="150" height="90" class="w"/><text x="990" y="202" font-size="22">MCU</text><line x1="1040" y1="240" x2="1040" y2="350" class="a"/><rect x="900" y="350" width="215" height="100" class="w"/><text x="935" y="392" font-size="22">Cable interface</text><text x="930" y="425" font-size="18">termination + EMI</text><line x1="965" y1="400" x2="790" y2="400" class="a"/><rect x="570" y="350" width="220" height="100" class="w"/><text x="620" y="392" font-size="22">Solenoid driver</text><text x="610" y="425" font-size="18">clamp + energy</text><line x1="570" y1="400" x2="390" y2="400" class="a"/><rect x="170" y="350" width="220" height="100" class="w"/><text x="220" y="392" font-size="22">Button input</text><text x="220" y="425" font-size="18">RC + Schmitt</text><text x="210" y="535" font-size="22">Design → simulate → corner → age → fault → measure → explain</text></svg>