<svg xmlns="http://www.w3.org/2000/svg" width="1000" height="520"><rect width="100%" height="100%" fill="white"/><style>text{font-family:Arial;fill:#111}.w{stroke:#111;stroke-width:4;fill:none}</style><text x="35" y="45" font-size="28" font-weight="bold">Lesson 2 — RC charge and discharge</text><circle class="w" cx="170" cy="270" r="48"/><text x="195" y="258" font-size="24">+</text><text x="195" y="302" font-size="24">−</text><text x="55" y="275" font-size="21">0–5 V pulse</text><line class="w" x1="170" y1="222" x2="170" y2="110"/><line class="w" x1="170" y1="110" x2="390" y2="110"/><polyline class="w" points="390,110 415,90 445,130 475,90 505,130 530,110"/><text x="420" y="70" font-size="22">10 kΩ</text><line class="w" x1="530" y1="110" x2="700" y2="110"/><circle cx="700" cy="110" r="6" fill="#111"/><text x="720" y="102" font-size="22">VCAP</text><line class="w" x1="700" y1="110" x2="700" y2="260"/><line class="w" x1="655" y1="260" x2="745" y2="260"/><line class="w" x1="655" y1="295" x2="745" y2="295"/><line class="w" x1="700" y1="295" x2="700" y2="420"/><text x="765" y="285" font-size="22">1 µF</text><line class="w" x1="700" y1="420" x2="170" y2="420"/><line class="w" x1="170" y1="420" x2="170" y2="318"/><text x="385" y="475" font-size="22">τ = RC = 10 ms</text></svg>