<svg xmlns="http://www.w3.org/2000/svg" width="1050" height="540"><rect width="100%" height="100%" fill="white"/><style>text{font-family:Arial;fill:#111}.w{stroke:#111;stroke-width:4;fill:none}</style><text x="35" y="45" font-size="28" font-weight="bold">Lesson 11 — Energy exchange and damping in RLC</text><line class="w" x1="110" y1="170" x2="250" y2="170"/><polyline class="w" points="250,170 275,150 305,190 335,150 365,190 390,170"/><text x="290" y="125" font-size="22">R</text><line class="w" x1="390" y1="170" x2="470" y2="170"/><path class="w" d="M470 170 c20 -35 40 -35 60 0 c20 35 40 35 60 0 c20 -35 40 -35 60 0"/><text x="540" y="125" font-size="22">L</text><line class="w" x1="650" y1="170" x2="760" y2="170"/><line class="w" x1="760" y1="130" x2="760" y2="210"/><line class="w" x1="800" y1="130" x2="800" y2="210"/><text x="765" y="105" font-size="22">C</text><line class="w" x1="800" y1="170" x2="920" y2="170"/><path class="w" d="M120 390 C180 270 240 510 300 390 C360 300 420 470 480 390 C540 330 600 450 660 390 C720 350 780 430 840 390"/><text x="120" y="470" font-size="22">Low R: long ringing</text><path class="w" d="M600 300 C640 250 680 350 720 300 C760 280 800 320 840 300"/><text x="650" y="255" font-size="22">More R: faster decay</text></svg>