<svg xmlns="http://www.w3.org/2000/svg" width="1080" height="540"><rect width="100%" height="100%" fill="white"/><style>text{font-family:Arial;fill:#111}.w{stroke:#111;stroke-width:4;fill:none}.thin{stroke:#111;stroke-width:2;fill:none}</style><text x="35" y="45" font-size="28" font-weight="bold">Lesson 15 — RC snubber across a ringing switch node</text><line class="w" x1="120" y1="170" x2="360" y2="170"/><path class="w" d="M360 170 c20 -35 40 -35 60 0 c20 35 40 35 60 0 c20 -35 40 -35 60 0"/><text x="405" y="125" font-size="22">parasitic L</text><line class="w" x1="540" y1="170" x2="760" y2="170"/><line class="w" x1="760" y1="170" x2="760" y2="420"/><line class="w" x1="760" y1="420" x2="120" y2="420"/><line class="w" x1="120" y1="420" x2="120" y2="170"/><line class="w" x1="580" y1="170" x2="580" y2="250"/><line class="w" x1="555" y1="250" x2="605" y2="250"/><line class="w" x1="555" y1="280" x2="605" y2="280"/><polyline class="w" points="580,280 560,305 600,330 560,355 600,380 580,405"/><text x="620" y="330" font-size="22">Csnub + Rsnub</text><path class="thin" d="M820 170 C850 90 880 250 910 170 C940 130 970 210 1000 170"/><text x="800" y="270" font-size="20">Without damping</text><path class="thin" d="M820 360 C850 320 880 390 910 360 C940 350 970 365 1000 360"/><text x="800" y="430" font-size="20">With tuned snubber</text></svg>