<svg xmlns="http://www.w3.org/2000/svg" width="1100" height="540"><rect width="100%" height="100%" fill="white"/><style>text{font-family:Arial;fill:#111}.w{stroke:#111;stroke-width:4;fill:none}.t{stroke:#111;stroke-width:2;fill:none}</style><text x="35" y="45" font-size="28" font-weight="bold">Lesson 29 — AC coupling preserves change, not absolute level</text><line class="w" x1="100" y1="180" x2="260" y2="180"/><line class="w" x1="260" y1="145" x2="260" y2="215"/><line class="w" x1="300" y1="145" x2="300" y2="215"/><line class="w" x1="300" y1="180" x2="520" y2="180"/><polyline class="w" points="520,180 545,160 575,200 605,160 635,200 660,180"/><text x="250" y="120" font-size="22">Ccouple</text><text x="545" y="135" font-size="22">Rbias/load</text><path class="t" d="M100 380 L180 380 L180 300 L320 300 L320 380 L430 380"/><path class="w" d="M550 380 L620 380 L620 295 C700 300 760 330 820 350 L820 380 C900 360 950 370 1000 380"/><text x="550" y="445" font-size="21">Pulse droop and baseline shift depend on RC and duty cycle</text></svg>