<svg xmlns="http://www.w3.org/2000/svg" width="1100" height="560"><rect width="100%" height="100%" fill="white"/><style>text{font-family:Arial;fill:#111}.w{stroke:#111;stroke-width:4;fill:none}.thin{stroke:#111;stroke-width:2;fill:none}</style><text x="35" y="45" font-size="28" font-weight="bold">Lesson 14 — RC plus hysteresis turns bounce into one transition</text><path class="thin" d="M80 150 L120 150 L120 100 L150 100 L150 150 L180 150 L180 110 L210 110 L210 150 L250 150 L250 100 L300 100"/><text x="80" y="80" font-size="21">raw switch</text><path class="w" d="M80 300 C160 300 210 220 300 180 C390 140 450 135 520 135"/><line class="thin" x1="80" y1="220" x2="520" y2="220"/><line class="thin" x1="80" y1="260" x2="520" y2="260"/><text x="530" y="225" font-size="18">rising threshold</text><text x="530" y="265" font-size="18">falling threshold</text><text x="80" y="335" font-size="21">RC node</text><path class="w" d="M80 460 L310 460 L310 390 L520 390"/><text x="80" y="500" font-size="21">Schmitt output: one clean edge</text><rect x="700" y="120" width="250" height="250" class="w"/><text x="755" y="165" font-size="22">Power-on reset</text><text x="730" y="215" font-size="20">slow charge → delayed release</text><text x="730" y="255" font-size="20">diode path → fast assertion</text><text x="730" y="295" font-size="20">supervisor IC for guaranteed</text><text x="730" y="325" font-size="20">threshold and brownout behavior</text></svg>