<svg xmlns="http://www.w3.org/2000/svg" width="1000" height="520"><rect width="100%" height="100%" fill="white"/><style>text{font-family:Arial;fill:#111}.w{stroke:#111;stroke-width:4;fill:none}</style><text x="35" y="45" font-size="28" font-weight="bold">Lesson 5 — RL current rise and magnetic energy</text><circle class="w" cx="160" cy="270" r="48"/><text x="185" y="258" font-size="24">+</text><text x="185" y="302" font-size="24">−</text><text x="55" y="275" font-size="22">0–5 V</text><line class="w" x1="160" y1="222" x2="160" y2="110"/><line class="w" x1="160" y1="110" x2="350" y2="110"/><polyline class="w" points="350,110 375,90 405,130 435,90 465,130 490,110"/><text x="380" y="70" font-size="22">100 Ω</text><line class="w" x1="490" y1="110" x2="610" y2="110"/><path class="w" d="M610 110 c20 -35 40 -35 60 0 c20 35 40 35 60 0 c20 -35 40 -35 60 0"/><text x="670" y="65" font-size="22">10 mH</text><line class="w" x1="790" y1="110" x2="790" y2="420"/><line class="w" x1="790" y1="420" x2="160" y2="420"/><line class="w" x1="160" y1="420" x2="160" y2="318"/><text x="330" y="475" font-size="22">τ = L/R = 100 µs, I∞ = 50 mA</text></svg>